<mxfile host="app.diagrams.net" agent="Mozilla/5.0 (X11; Ubuntu; Linux x86_64; rv:138.0) Gecko/20100101 Firefox/138.0" version="27.0.6">
  <diagram name="Page-1" id="2YBvvXClWsGukQMizWep">
    <mxGraphModel grid="1" page="1" gridSize="10" guides="1" tooltips="1" connect="1" arrows="1" fold="1" pageScale="1" pageWidth="850" pageHeight="1100" math="0" shadow="0">
      <root>
        <mxCell id="0" />
        <mxCell id="1" parent="0" />
        <mxCell id="NAk_blUenSS0QzQ8XUK6-9" value="Locutor:Usuário" style="rounded=0;whiteSpace=wrap;html=1;" vertex="1" parent="1">
          <mxGeometry x="30" y="690" width="120" height="60" as="geometry" />
        </mxCell>
        <mxCell id="NAk_blUenSS0QzQ8XUK6-13" value=":MensagemService" style="rounded=0;whiteSpace=wrap;html=1;" vertex="1" parent="1">
          <mxGeometry x="30" y="250" width="120" height="60" as="geometry" />
        </mxCell>
        <mxCell id="NAk_blUenSS0QzQ8XUK6-14" value="" style="endArrow=classic;html=1;rounded=0;exitX=0.5;exitY=0;exitDx=0;exitDy=0;entryX=0.5;entryY=1;entryDx=0;entryDy=0;" edge="1" parent="1" source="NAk_blUenSS0QzQ8XUK6-9" target="NAk_blUenSS0QzQ8XUK6-35">
          <mxGeometry width="50" height="50" relative="1" as="geometry">
            <mxPoint x="400" y="410" as="sourcePoint" />
            <mxPoint x="180" y="340" as="targetPoint" />
          </mxGeometry>
        </mxCell>
        <mxCell id="NAk_blUenSS0QzQ8XUK6-15" value="" style="endArrow=classic;html=1;rounded=0;exitX=0.5;exitY=0;exitDx=0;exitDy=0;entryX=0.5;entryY=1;entryDx=0;entryDy=0;" edge="1" parent="1" source="NAk_blUenSS0QzQ8XUK6-35" target="NAk_blUenSS0QzQ8XUK6-13">
          <mxGeometry width="50" height="50" relative="1" as="geometry">
            <mxPoint x="265" y="228.01999999999998" as="sourcePoint" />
            <mxPoint x="180" y="340" as="targetPoint" />
          </mxGeometry>
        </mxCell>
        <mxCell id="NAk_blUenSS0QzQ8XUK6-16" value=":ChatRepository" style="rounded=0;whiteSpace=wrap;html=1;" vertex="1" parent="1">
          <mxGeometry x="530" y="90" width="230" height="60" as="geometry" />
        </mxCell>
        <mxCell id="NAk_blUenSS0QzQ8XUK6-19" value="" style="endArrow=classic;html=1;rounded=0;exitX=1;exitY=0.5;exitDx=0;exitDy=0;entryX=0;entryY=0.5;entryDx=0;entryDy=0;" edge="1" parent="1" source="NAk_blUenSS0QzQ8XUK6-13" target="NAk_blUenSS0QzQ8XUK6-16">
          <mxGeometry width="50" height="50" relative="1" as="geometry">
            <mxPoint x="400" y="410" as="sourcePoint" />
            <mxPoint x="450" y="360" as="targetPoint" />
          </mxGeometry>
        </mxCell>
        <mxCell id="NAk_blUenSS0QzQ8XUK6-20" value=":Chat" style="rounded=0;whiteSpace=wrap;html=1;" vertex="1" parent="1">
          <mxGeometry x="610" y="280" width="120" height="60" as="geometry" />
        </mxCell>
        <mxCell id="NAk_blUenSS0QzQ8XUK6-21" value="Interlocutor:Usuário" style="rounded=0;whiteSpace=wrap;html=1;" vertex="1" parent="1">
          <mxGeometry x="30" y="80" width="120" height="60" as="geometry" />
        </mxCell>
        <mxCell id="NAk_blUenSS0QzQ8XUK6-22" value="" style="endArrow=classic;html=1;rounded=0;exitX=0.5;exitY=0;exitDx=0;exitDy=0;entryX=0.5;entryY=1;entryDx=0;entryDy=0;" edge="1" parent="1" source="NAk_blUenSS0QzQ8XUK6-13" target="NAk_blUenSS0QzQ8XUK6-21">
          <mxGeometry width="50" height="50" relative="1" as="geometry">
            <mxPoint x="400" y="410" as="sourcePoint" />
            <mxPoint x="450" y="360" as="targetPoint" />
          </mxGeometry>
        </mxCell>
        <mxCell id="NAk_blUenSS0QzQ8XUK6-23" value="1: enviarMensagem(chatId, texto)" style="text;html=1;align=center;verticalAlign=middle;whiteSpace=wrap;rounded=0;" vertex="1" parent="1">
          <mxGeometry x="70" y="630" width="250" height="30" as="geometry" />
        </mxCell>
        <mxCell id="NAk_blUenSS0QzQ8XUK6-24" value="2: processarMensagem()" style="text;html=1;align=center;verticalAlign=middle;whiteSpace=wrap;rounded=0;" vertex="1" parent="1">
          <mxGeometry x="90" y="510" width="150" height="30" as="geometry" />
        </mxCell>
        <mxCell id="NAk_blUenSS0QzQ8XUK6-25" value="3: chat:=buscarOuCriarChat(chatId) : Chat" style="text;html=1;align=center;verticalAlign=middle;whiteSpace=wrap;rounded=0;" vertex="1" parent="1">
          <mxGeometry x="340" y="190" width="300" height="30" as="geometry" />
        </mxCell>
        <mxCell id="NAk_blUenSS0QzQ8XUK6-26" value="" style="endArrow=classic;html=1;rounded=0;exitX=1;exitY=0.75;exitDx=0;exitDy=0;entryX=0;entryY=0.25;entryDx=0;entryDy=0;" edge="1" parent="1" source="NAk_blUenSS0QzQ8XUK6-13" target="NAk_blUenSS0QzQ8XUK6-20">
          <mxGeometry width="50" height="50" relative="1" as="geometry">
            <mxPoint x="400" y="410" as="sourcePoint" />
            <mxPoint x="450" y="360" as="targetPoint" />
          </mxGeometry>
        </mxCell>
        <mxCell id="NAk_blUenSS0QzQ8XUK6-27" value="4: adicionarMensagem(mensagem)" style="text;html=1;align=center;verticalAlign=middle;whiteSpace=wrap;rounded=0;" vertex="1" parent="1">
          <mxGeometry x="270" y="265" width="250" height="30" as="geometry" />
        </mxCell>
        <mxCell id="NAk_blUenSS0QzQ8XUK6-28" value=":MensagemRepository" style="rounded=0;whiteSpace=wrap;html=1;" vertex="1" parent="1">
          <mxGeometry x="150" y="420" width="170" height="60" as="geometry" />
        </mxCell>
        <mxCell id="NAk_blUenSS0QzQ8XUK6-29" value="" style="endArrow=classic;html=1;rounded=0;exitX=0.935;exitY=0.95;exitDx=0;exitDy=0;exitPerimeter=0;entryX=0.25;entryY=0;entryDx=0;entryDy=0;" edge="1" parent="1" source="NAk_blUenSS0QzQ8XUK6-13" target="NAk_blUenSS0QzQ8XUK6-28">
          <mxGeometry width="50" height="50" relative="1" as="geometry">
            <mxPoint x="400" y="410" as="sourcePoint" />
            <mxPoint x="450" y="360" as="targetPoint" />
          </mxGeometry>
        </mxCell>
        <mxCell id="NAk_blUenSS0QzQ8XUK6-32" value="5: salvar(mensagem)" style="text;html=1;align=center;verticalAlign=middle;whiteSpace=wrap;rounded=0;" vertex="1" parent="1">
          <mxGeometry x="160" y="360" width="160" height="30" as="geometry" />
        </mxCell>
        <mxCell id="NAk_blUenSS0QzQ8XUK6-33" value="6: notificar(destinatario)" style="text;html=1;align=center;verticalAlign=middle;whiteSpace=wrap;rounded=0;" vertex="1" parent="1">
          <mxGeometry x="80" y="170" width="170" height="30" as="geometry" />
        </mxCell>
        <mxCell id="NAk_blUenSS0QzQ8XUK6-35" value=":MensagemController" style="rounded=0;whiteSpace=wrap;html=1;" vertex="1" parent="1">
          <mxGeometry x="30" y="550" width="120" height="60" as="geometry" />
        </mxCell>
      </root>
    </mxGraphModel>
  </diagram>
</mxfile>
